<?xml version="1.0" encoding="UTF-8"?>
<!DOCTYPE svg PUBLIC "-//W3C//DTD SVG 1.1//EN" "http://www.w3.org/Graphics/SVG/1.1/DTD/svg11.dtd">
<!-- Creator: CorelDRAW X6 -->
<svg xmlns="http://www.w3.org/2000/svg" xml:space="preserve" width="200px" height="37px" version="1.1" style="shape-rendering:geometricPrecision; text-rendering:geometricPrecision; image-rendering:optimizeQuality; fill-rule:evenodd; clip-rule:evenodd"
viewBox="0 0 74 14"
 xmlns:xlink="http://www.w3.org/1999/xlink">
 <defs>
  <style type="text/css">
   <![CDATA[
    .str0 {stroke:#2B2E59;stroke-width:0.0563966}
    .str2 {stroke:#2B2E59;stroke-width:0.112793}
    .str1 {stroke:#2B2E59;stroke-width:0.422974}
    .fil1 {fill:none}
    .fil0 {fill:#2B2E59}
    .fil2 {fill:#2B2E59;fill-rule:nonzero}
   ]]>
  </style>
 </defs>
 <g id="Camada_x0020_1">
  <metadata id="CorelCorpID_0Corel-Layer"/>
  <g id="_898930736">
   <path class="fil0 str0" d="M5 4l2 2c4,0 4,-5 1,-6l-6 0 4 4z"/>
   <path class="fil1 str1" d="M5 8l-4 -4 0 -4 6 6c3,-1 4,6 0,6l-6 0 4 -4z"/>
  </g>
  <g id="_898932752">
   <path class="fil0 str2" d="M38 0l-5 0c-2,0 -3,1 -3,3l0 1c0,2 1,3 3,3l5 0 0 -1 -5 0c-1,0 -2,-1 -2,-2l0 0 7 0 0 -1 -7 0 0 0c0,-1 1,-2 2,-2l5 0 0 -1z"/>
   <path class="fil0 str2" d="M23 4l0 3 -1 0 0 -2 0 0 0 -4 7 0c1,0 1,1 1,1l0 2c0,1 0,1 -1,1l-1 0 2 3 -2 0 -2 -3 -3 0zm0 -3l5 0c0,0 1,0 1,1l0 1c0,0 0,1 -1,1l-5 0 0 -2z"/>
   <path class="fil0 str2" d="M12 0l7 0c1,0 1,1 1,1l0 1c0,1 -1,1 -1,1 1,0 1,1 1,1l0 1c0,1 -1,1 -1,1l-7 0 0 -3 0 0 0 -3zm1 4l5 0c0,0 1,0 1,1l0 1c0,0 0,1 -1,1l-5 0 0 -2zm0 -3l5 0c0,0 1,0 1,1l0 1c0,0 0,1 -1,1l-5 0 0 -2z"/>
   <path class="fil0 str2" d="M40 0l6 0 0 1 -6 0c0,0 -1,0 -1,1l0 0c0,0 0,1 1,1l4 0 0 0 0 0c1,0 2,1 2,1l0 1c0,1 -1,1 -2,1l-6 0 0 -1 6 0c0,0 1,0 1,-1l0 0c0,0 0,-1 -1,-1l-3 0 -2 0c-1,0 -1,-1 -1,-1l0 -1c0,-1 1,-1 1,-1z"/>
   <path class="fil0 str2" d="M51 0l2 0c2,0 3,2 3,3l0 0c0,2 -2,3 -3,3l-2 0c-2,0 -3,-2 -3,-3l0 0c0,-2 2,-3 3,-3zm0 1l1 0c1,0 2,1 2,2l0 0c0,1 -1,2 -2,2l-1 0c-1,0 -2,-1 -2,-2l0 0c0,-1 1,-2 2,-2z"/>
   <path class="fil0 str2" d="M57 0l1 0 0 3c0,1 1,2 2,2l4 0 0 1 -4 0c-2,0 -3,-2 -3,-3l0 -3z"/>
   <path class="fil0 str2" d="M70 0l1 3 2 4 -1 0 -1 -2 -4 0 -1 2 -1 0 2 -4 1 -3 2 0zm-1 1l1 1 1 1 -1 0 -1 0 1 -1 1 -1z"/>
  </g>
  <path class="fil2" d="M14 13l0 -2 -1 0 0 0 2 0 0 0 -1 0 0 2 0 0zm2 0l0 -3 2 0 0 0 -1 0 0 1 1 0 0 0 -1 0 0 1 1 0 0 0 -2 0zm2 0l0 -3 1 0c0,0 0,0 1,0 0,0 0,0 0,0 0,0 0,0 0,0 0,0 0,0 0,1 0,0 0,0 0,0 0,0 0,0 0,0 0,0 0,0 0,0l0 1 -1 0 0 -1c0,0 0,0 0,0 0,0 0,0 0,0 0,0 0,0 0,0l0 0 0 1 0 0zm0 -2l0 0c0,0 0,0 0,0 0,0 0,0 0,0 0,0 0,0 0,0 0,0 0,0 0,0 0,0 0,0 0,0 0,0 0,0 0,0l0 0 0 1zm2 2l0 -3 1 0c0,0 0,0 1,0 0,0 0,0 0,0 0,0 0,0 0,0 0,0 0,0 0,1 0,0 0,0 0,0 0,0 0,0 0,0 0,0 0,0 0,0l0 1 -1 0 0 -1c0,0 0,0 0,0 0,0 0,0 0,0 0,0 0,0 0,0l0 0 0 1 0 0zm0 -2l0 0c0,0 0,0 0,0 0,0 0,0 0,0 0,0 0,0 0,0 0,0 0,0 0,0 0,0 0,0 0,0 0,0 0,0 0,0l0 0 0 1zm4 2l0 0 0 -1 -1 0 0 1 0 0 1 -3 0 0 1 3zm-1 -1l0 -1 0 1 1 0zm1 1l0 -3 1 0c0,0 0,0 1,0 0,0 0,0 0,0 0,0 0,0 0,1 0,0 0,0 0,0 0,0 0,0 0,0 0,0 0,0 0,0 0,0 0,0 0,0l0 0 0 1 0 0zm0 -2l0 1 0 0c0,0 0,0 0,0 0,0 0,0 0,0 0,0 0,0 0,0 0,0 0,0 0,0 0,0 0,0 0,0 0,0 0,0 0,0l0 0zm2 2l0 -3 0 0 0 2 1 0 0 0 -2 0zm4 0l0 0 0 -1 -1 0 0 1 0 0 1 -3 0 0 1 3zm-1 -1l0 -1 0 1 1 0zm1 1l0 -3 0 0 1 2 0 -2 0 0 0 3 0 0 -1 -2 0 2 0 0zm4 0l0 0 0 -1 -1 0 0 1 0 0 1 -3 0 0 1 3zm-1 -1l0 -1 0 1 1 0zm2 0l0 0 1 0 0 1c0,0 0,0 0,0 0,0 0,0 -1,0 0,0 0,0 -1,0 0,0 0,0 0,-1 0,0 0,0 0,-1 0,0 0,-1 0,-1 0,0 0,0 0,-1 0,0 0,0 1,0 0,0 1,0 1,0 0,0 0,0 0,1l0 0c0,0 0,0 0,0 0,0 0,0 0,0 0,0 0,0 0,0 0,0 0,0 0,1 0,0 0,1 0,1 0,0 0,0 0,0 0,0 0,0 0,0 0,0 0,0 0,0l0 0 -1 0zm2 1l0 -3 2 0 0 0 -1 0 0 1 1 0 0 0 -1 0 0 1 1 0 0 0 -2 0zm2 0l0 -3 1 0 0 2 0 -2 1 0 0 3 0 0 0 -2 0 2 0 0 0 -2 0 2 0 0zm4 0l0 -3 2 0 0 0 -1 0 0 1 1 0 0 0 -1 0 0 1 1 0 0 0 -2 0zm3 0l0 -3 1 0c0,0 0,0 1,0 0,0 0,0 0,0 0,0 0,0 0,1 0,0 0,0 0,0 0,0 0,0 0,0 0,0 0,0 0,0 0,0 0,0 0,0l0 0 0 1 0 0zm0 -2l0 1 0 0c0,0 0,0 0,0 0,0 0,0 0,0 0,0 0,0 0,0 0,0 0,0 0,0 0,0 0,0 0,0 0,0 0,0 0,0l0 0zm4 2l0 0 0 -1 -1 0 0 1 0 0 1 -3 0 0 1 3zm-1 -1l0 -1 0 1 1 0zm2 1l-1 -3 0 0 1 2 1 -2 0 0 -1 3 0 0zm2 0l0 -3 0 0 0 3 0 0zm1 0l0 -3 1 0 0 2 0 -2 1 0 0 3 0 0 0 -2 0 2 0 0 0 -2 0 2 0 0zm3 0l0 -3 2 0 0 0 -1 0 0 1 1 0 0 0 -1 0 0 1 1 0 0 0 -2 0zm2 0l0 -3 0 0 1 2 0 -2 0 0 0 3 0 0 -1 -2 0 2 0 0zm3 0l0 -2 -1 0 0 0 2 0 0 0 -1 0 0 2 0 0zm3 0l0 0 0 -1 -1 0 0 1 0 0 1 -3 0 0 1 3zm-1 -1l0 -1 0 1 1 0zm3 0l0 0c0,0 0,1 0,1 0,0 0,0 -1,0 0,0 -1,0 -1,0 0,0 0,-1 0,-1 0,0 0,-1 0,-1 0,0 0,0 1,0 0,0 1,0 1,0 0,0 0,0 0,1l0 0c0,0 0,0 0,0 0,0 0,0 0,0 0,0 0,0 0,0 0,0 0,0 0,1 0,0 0,1 0,1 0,0 0,0 0,0 0,0 0,0 0,0 0,0 0,0 0,0zm-1 2l0 0c0,0 0,0 0,0 0,0 0,0 0,0 0,0 0,0 0,0 0,0 0,0 0,0 0,0 0,0 0,0 0,0 0,0 0,0l0 0c0,0 0,0 0,0 0,0 0,0 0,0 0,0 0,0 0,0 0,0 0,0 0,0 0,0 0,0 0,0 0,0 0,0 0,0zm4 -1l0 0 0 -1 -1 0 0 1 0 0 1 -3 0 0 1 3zm-1 -1l0 -1 0 1 1 0zm-1 -2l0 0c0,0 0,0 0,0 0,0 0,0 0,0 0,0 0,0 0,0 0,0 0,0 0,0 0,0 0,0 0,0 0,0 0,0 0,0 0,0 0,0 0,0 0,0 0,0 0,0l0 0c0,0 0,0 0,0 0,0 0,0 0,0 0,0 0,0 0,0 0,0 0,0 0,0 0,0 0,0 0,0 0,0 0,0 0,0 0,0 0,0 0,0zm2 2c0,0 0,-1 0,-1 0,0 0,0 0,0 0,0 0,0 0,0 0,0 0,0 0,0 0,0 1,0 1,0 0,0 0,1 0,1 0,0 0,1 0,1 0,0 0,0 -1,0 0,0 -1,0 -1,0 0,0 0,-1 0,-1zm0 0c0,0 0,1 0,1 0,0 0,0 0,0 0,0 0,0 0,0 0,0 0,0 0,-1 0,0 0,-1 0,-1 0,0 0,0 0,0 0,0 0,0 0,0 0,0 0,0 0,1z"/>
 </g>
</svg>
